<mxfile host="65bd71144e" scale="3" border="0">
    <diagram id="LzTGRrPrDBO6Tm46XuKC" name="Page-1">
        <mxGraphModel dx="2090" dy="2339" grid="0" gridSize="10" guides="1" tooltips="1" connect="1" arrows="1" fold="1" page="0" pageScale="1" pageWidth="1600" pageHeight="1200" math="0" shadow="0">
            <root>
                <mxCell id="0"/>
                <mxCell id="1" parent="0"/>
                <mxCell id="285" value="Failure Count&lt;div&gt;uint8_t&lt;/div&gt;" style="rounded=0;whiteSpace=wrap;html=1;fillColor=#dae8fc;strokeColor=#6c8ebf;fontSize=17;" parent="1" vertex="1">
                    <mxGeometry x="-93" y="-866" width="193" height="60" as="geometry"/>
                </mxCell>
                <mxCell id="286" value="Origin Software Address&lt;div&gt;uint32_t&lt;/div&gt;" style="rounded=0;whiteSpace=wrap;html=1;fillColor=#ffe6cc;strokeColor=#d79b00;fontSize=17;" parent="1" vertex="1">
                    <mxGeometry x="-93" y="-746" width="193" height="215" as="geometry"/>
                </mxCell>
                <mxCell id="287" value="New&amp;nbsp;&lt;span style=&quot;color: rgb(51, 51, 51);&quot;&gt;Software&amp;nbsp;&lt;/span&gt;Address&lt;div&gt;uint32_t&lt;/div&gt;" style="rounded=0;whiteSpace=wrap;html=1;fillColor=#ffe6cc;strokeColor=#d79b00;fontSize=17;" parent="1" vertex="1">
                    <mxGeometry x="-93" y="-531" width="193" height="215" as="geometry"/>
                </mxCell>
                <mxCell id="288" value="Failure Info&lt;br&gt;&lt;div&gt;uint8_t&lt;/div&gt;" style="rounded=0;whiteSpace=wrap;html=1;fillColor=#f5f5f5;strokeColor=#666666;fontSize=17;fontColor=#333333;" parent="1" vertex="1">
                    <mxGeometry x="-93" y="-806" width="193" height="60" as="geometry"/>
                </mxCell>
            </root>
        </mxGraphModel>
    </diagram>
</mxfile>